<svg id="Layer_1" enable-background="new 0 0 512 512" height="512" viewBox="0 0 512 512" width="512" xmlns="http://www.w3.org/2000/svg"><g><g><path d="m504 148.762v104.969c0 9.369-4.216 18.233-11.482 24.148-24.786 20.179-93.042 61.481-236.518 61.481s-211.732-41.302-236.518-61.48c-7.266-5.915-11.482-14.779-11.482-24.148v-104.97c0-17.193 13.937-31.13 31.13-31.13h433.74c17.193 0 31.13 13.938 31.13 31.13z" fill="#9c8f9a"/><path d="m504 148.762v104.969c0 9.369-4.216 18.233-11.482 24.148-24.786 20.179-93.042 61.481-236.518 61.481s-211.732-41.302-236.518-61.48c-7.266-5.915-11.482-14.779-11.482-24.148v-104.97c0-17.193 13.937-31.13 31.13-31.13h433.74c17.193 0 31.13 13.938 31.13 31.13z" fill="#9c8f9a"/><path d="m504 148.762v104.969c0 9.369-4.216 18.233-11.482 24.148-24.786 20.179-93.042 61.481-236.518 61.481s-211.732-41.302-236.518-61.48c-7.266-5.915-11.482-14.779-11.482-24.148v-104.97c0-17.193 13.937-31.13 31.13-31.13h433.74c17.193 0 31.13 13.938 31.13 31.13z" fill="#407093"/><path d="m492.518 259.88c-24.786 20.178-93.042 61.48-236.518 61.48s-211.732-41.302-236.518-61.48c-7.266-5.915-11.482-14.779-11.482-24.148v18c0 9.369 4.216 18.233 11.482 24.148 24.786 20.178 93.042 61.48 236.518 61.48s211.732-41.302 236.518-61.481c7.266-5.915 11.482-14.779 11.482-24.148v-18c0 9.37-4.216 18.234-11.482 24.149z" fill="#365e7d"/><path d="m256 339.36c-140.954 0-209.305-39.861-235.167-60.396v162.82c0 17.193 13.937 31.13 31.13 31.13h408.074c17.193 0 31.13-13.937 31.13-31.13v-162.82c-25.862 20.535-94.213 60.396-235.167 60.396z" fill="#365e7d"/><path d="m20.833 278.965v18c25.862 20.535 94.213 60.395 235.167 60.395s209.305-39.861 235.167-60.396v-18c-25.862 20.535-94.213 60.396-235.167 60.396s-209.305-39.861-235.167-60.395z" fill="#2b4d66"/><path d="m255.997 378.6c-16.105 0-29.16-13.055-29.16-29.16v-35.68c0-5.731 4.646-10.377 10.376-10.377h37.566c5.731 0 10.377 4.646 10.377 10.377v35.68c0 16.104-13.055 29.16-29.159 29.16z" fill="#ffe27a"/><path d="m255.997 360.6c-16.105 0-29.16-13.055-29.16-29.16v18c0 16.104 13.055 29.16 29.16 29.16s29.16-13.055 29.16-29.16v-18c-.001 16.104-13.056 29.16-29.16 29.16z" fill="#f9cf58"/><path d="m203.87 117.632v-34.343c8.947-4.566 26.837-11.6 52.127-11.6s43.18 7.035 52.127 11.6v34.344h32.603v-43.576c0-5.085-2.373-9.88-6.418-12.963-.806-.614-8.26-6.16-21.541-11.498-17.109-6.876-36.741-10.511-56.771-10.511-20.031 0-39.662 3.635-56.772 10.511-13.28 5.337-20.735 10.883-21.541 11.498-4.044 3.084-6.417 7.877-6.417 12.963v43.576h32.603z" fill="#e8834d"/><g fill="#d66e41"><path d="m171.267 99.633h32.603v18h-32.603z"/><path d="m308.124 99.633h32.603v18h-32.603z"/></g></g><path d="m473.294 109.847h-124.887v-36.146c0-7.392-3.509-14.481-9.388-18.965-1.453-1.108-9.408-6.919-23.337-12.517-5.891-2.367-12.129-4.394-18.545-6.023-4.02-1.023-8.112 1.41-9.134 5.433-1.021 4.022 1.411 8.111 5.434 9.133 5.77 1.466 11.369 3.284 16.641 5.402 12.601 5.064 19.54 10.303 19.829 10.523 2.174 1.658 3.472 4.279 3.472 7.013v36.147h-17.637v-26.896c0-2.824-1.583-5.41-4.099-6.694-9.109-4.647-28.448-12.444-55.645-12.444s-46.536 7.796-55.645 12.444c-2.516 1.284-4.099 3.869-4.099 6.694v26.897h-17.638v-36.147c0-2.733 1.297-5.355 3.473-7.013.289-.221 7.224-5.458 19.828-10.524 16.262-6.535 34.963-9.989 54.081-9.989 3.193 0 6.429.098 9.618.293 4.144.253 7.706-2.902 7.958-7.044s-2.901-7.705-7.044-7.958c-3.492-.212-7.036-.32-10.532-.32-21.02 0-41.659 3.829-59.686 11.073-13.933 5.6-21.885 11.41-23.338 12.518-5.878 4.482-9.387 11.571-9.387 18.963v36.147h-124.881c-21.343 0-38.706 17.363-38.706 38.705v105.175c0 11.07 4.667 21.461 12.858 28.803v159.618c0 21.342 17.363 38.705 38.705 38.705h296.912c4.151 0 7.515-3.365 7.515-7.515s-3.364-7.515-7.515-7.515h-296.911c-13.055 0-23.676-10.621-23.676-23.676v-148.443c10.891 7.209 25.716 15.47 45.143 23.274 3.848 1.545 8.227-.32 9.775-4.172 1.547-3.851-.322-8.227-4.172-9.774-27.523-11.055-45.03-22.925-54.87-30.937-5.551-4.518-8.734-11.213-8.734-18.367v-105.176c0-13.055 10.621-23.676 23.676-23.676h434.589c13.055 0 23.676 10.621 23.676 23.676v105.175c0 7.154-3.183 13.849-8.734 18.367-11.237 9.148-31.444 22.541-63.9 34.397-37.31 13.628-81.561 21.868-131.609 24.541v-17.159c0-9.877-8.035-17.912-17.911-17.912h-37.64c-9.877 0-17.912 8.035-17.912 17.912v17.17c-40.462-2.165-77.326-8.009-109.677-17.396-3.982-1.153-8.154 1.137-9.311 5.123s1.137 8.154 5.123 9.311c33.665 9.768 71.943 15.815 113.865 18.007v3.534c0 20.254 16.478 36.731 36.732 36.731 20.253 0 36.731-16.477 36.731-36.731v-3.531c101.618-5.293 160.433-31.776 191.384-52.357v148.414c0 13.055-10.621 23.676-23.676 23.676h-81.902c-4.151 0-7.515 3.365-7.515 7.515s3.364 7.515 7.515 7.515h81.902c21.342 0 38.705-17.363 38.705-38.705v-159.619c8.192-7.342 12.858-17.733 12.858-28.802v-105.176c.001-21.342-17.362-38.705-38.705-38.705zm-262.011-22.146c8.961-3.949 24.226-8.859 44.714-8.859s35.753 4.91 44.714 8.859v22.146h-89.429v-22.146zm66.416 261.922c0 11.967-9.735 21.702-21.702 21.702s-21.703-9.735-21.703-21.702v-35.75c0-1.59 1.294-2.883 2.883-2.883h37.64c1.589 0 2.882 1.293 2.882 2.883z"/></g></svg>